<svg width="128" height="56" viewBox="0 0 128 56" fill="none" xmlns="http://www.w3.org/2000/svg">
<rect x="4.5" y="4.5" width="119" height="47" rx="7.5" fill="white"/>
<rect x="4.5" y="4.5" width="119" height="47" rx="7.5" stroke="#E43A12"/>
<path d="M45.5787 32.528H49.3387V34H43.7547V22.88H45.5787V32.528ZM50.2561 29.552C50.2561 28.6667 50.4374 27.8827 50.8001 27.2C51.1734 26.5173 51.6747 25.9893 52.3041 25.616C52.9441 25.232 53.6481 25.04 54.4161 25.04C55.1094 25.04 55.7121 25.1787 56.2241 25.456C56.7467 25.7227 57.1627 26.0587 57.4721 26.464V25.184H59.3121V34H57.4721V32.688C57.1627 33.104 56.7414 33.4507 56.2081 33.728C55.6747 34.0053 55.0667 34.144 54.3841 34.144C53.6267 34.144 52.9334 33.952 52.3041 33.568C51.6747 33.1733 51.1734 32.6293 50.8001 31.936C50.4374 31.232 50.2561 30.4373 50.2561 29.552ZM57.4721 29.584C57.4721 28.976 57.3441 28.448 57.0881 28C56.8427 27.552 56.5174 27.2107 56.1121 26.976C55.7067 26.7413 55.2694 26.624 54.8001 26.624C54.3307 26.624 53.8934 26.7413 53.4881 26.976C53.0827 27.2 52.7521 27.536 52.4961 27.984C52.2507 28.4213 52.1281 28.944 52.1281 29.552C52.1281 30.16 52.2507 30.6933 52.4961 31.152C52.7521 31.6107 53.0827 31.9627 53.4881 32.208C53.9041 32.4427 54.3414 32.56 54.8001 32.56C55.2694 32.56 55.7067 32.4427 56.1121 32.208C56.5174 31.9733 56.8427 31.632 57.0881 31.184C57.3441 30.7253 57.4721 30.192 57.4721 29.584ZM63.5318 26.496C63.8411 26.0693 64.2625 25.7227 64.7958 25.456C65.3398 25.1787 65.9425 25.04 66.6038 25.04C67.3825 25.04 68.0865 25.2267 68.7158 25.6C69.3451 25.9733 69.8411 26.5067 70.2038 27.2C70.5665 27.8827 70.7478 28.6667 70.7478 29.552C70.7478 30.4373 70.5665 31.232 70.2038 31.936C69.8411 32.6293 69.3398 33.1733 68.6998 33.568C68.0705 33.952 67.3718 34.144 66.6038 34.144C65.9211 34.144 65.3131 34.0107 64.7798 33.744C64.2571 33.4773 63.8411 33.136 63.5318 32.72V34H61.7078V22.16H63.5318V26.496ZM68.8918 29.552C68.8918 28.944 68.7638 28.4213 68.5078 27.984C68.2625 27.536 67.9318 27.2 67.5158 26.976C67.1105 26.7413 66.6731 26.624 66.2038 26.624C65.7451 26.624 65.3078 26.7413 64.8918 26.976C64.4865 27.2107 64.1558 27.552 63.8998 28C63.6545 28.448 63.5318 28.976 63.5318 29.584C63.5318 30.192 63.6545 30.7253 63.8998 31.184C64.1558 31.632 64.4865 31.9733 64.8918 32.208C65.3078 32.4427 65.7451 32.56 66.2038 32.56C66.6731 32.56 67.1105 32.4427 67.5158 32.208C67.9318 31.9627 68.2625 31.6107 68.5078 31.152C68.7638 30.6933 68.8918 30.16 68.8918 29.552ZM80.6316 29.376C80.6316 29.7067 80.6102 30.0053 80.5676 30.272H73.8316C73.8849 30.976 74.1462 31.5413 74.6156 31.968C75.0849 32.3947 75.6609 32.608 76.3436 32.608C77.3249 32.608 78.0182 32.1973 78.4236 31.376H80.3916C80.1249 32.1867 79.6396 32.8533 78.9356 33.376C78.2422 33.888 77.3782 34.144 76.3436 34.144C75.5009 34.144 74.7436 33.9573 74.0716 33.584C73.4102 33.2 72.8876 32.6667 72.5036 31.984C72.1302 31.2907 71.9436 30.4907 71.9436 29.584C71.9436 28.6773 72.1249 27.8827 72.4876 27.2C72.8609 26.5067 73.3782 25.9733 74.0396 25.6C74.7116 25.2267 75.4796 25.04 76.3436 25.04C77.1756 25.04 77.9169 25.2213 78.5676 25.584C79.2182 25.9467 79.7249 26.4587 80.0876 27.12C80.4502 27.7707 80.6316 28.5227 80.6316 29.376ZM78.7276 28.8C78.7169 28.128 78.4769 27.5893 78.0076 27.184C77.5382 26.7787 76.9569 26.576 76.2636 26.576C75.6342 26.576 75.0956 26.7787 74.6476 27.184C74.1996 27.5787 73.9329 28.1173 73.8476 28.8H78.7276ZM84.2506 22.16V34H82.4266V22.16H84.2506Z" fill="#E43A12"/>
<rect x="2" y="2" width="124" height="52" rx="10" stroke="#FEE7D6" stroke-width="4"/>
</svg>
