<svg width="120" height="48" viewBox="0 0 120 48" fill="none" xmlns="http://www.w3.org/2000/svg">
<rect width="120" height="48" rx="8" fill="#F3541C"/>
<path d="M41.5787 28.528H45.3387V30H39.7547V18.88H41.5787V28.528ZM46.2561 25.552C46.2561 24.6667 46.4374 23.8827 46.8001 23.2C47.1734 22.5173 47.6747 21.9893 48.3041 21.616C48.9441 21.232 49.6481 21.04 50.4161 21.04C51.1094 21.04 51.7121 21.1787 52.2241 21.456C52.7467 21.7227 53.1627 22.0587 53.4721 22.464V21.184H55.3121V30H53.4721V28.688C53.1627 29.104 52.7414 29.4507 52.2081 29.728C51.6747 30.0053 51.0667 30.144 50.3841 30.144C49.6267 30.144 48.9334 29.952 48.3041 29.568C47.6747 29.1733 47.1734 28.6293 46.8001 27.936C46.4374 27.232 46.2561 26.4373 46.2561 25.552ZM53.4721 25.584C53.4721 24.976 53.3441 24.448 53.0881 24C52.8427 23.552 52.5174 23.2107 52.1121 22.976C51.7067 22.7413 51.2694 22.624 50.8001 22.624C50.3307 22.624 49.8934 22.7413 49.4881 22.976C49.0827 23.2 48.7521 23.536 48.4961 23.984C48.2507 24.4213 48.1281 24.944 48.1281 25.552C48.1281 26.16 48.2507 26.6933 48.4961 27.152C48.7521 27.6107 49.0827 27.9627 49.4881 28.208C49.9041 28.4427 50.3414 28.56 50.8001 28.56C51.2694 28.56 51.7067 28.4427 52.1121 28.208C52.5174 27.9733 52.8427 27.632 53.0881 27.184C53.3441 26.7253 53.4721 26.192 53.4721 25.584ZM59.5318 22.496C59.8411 22.0693 60.2625 21.7227 60.7958 21.456C61.3398 21.1787 61.9425 21.04 62.6038 21.04C63.3825 21.04 64.0865 21.2267 64.7158 21.6C65.3451 21.9733 65.8411 22.5067 66.2038 23.2C66.5665 23.8827 66.7478 24.6667 66.7478 25.552C66.7478 26.4373 66.5665 27.232 66.2038 27.936C65.8411 28.6293 65.3398 29.1733 64.6998 29.568C64.0705 29.952 63.3718 30.144 62.6038 30.144C61.9211 30.144 61.3131 30.0107 60.7798 29.744C60.2571 29.4773 59.8411 29.136 59.5318 28.72V30H57.7078V18.16H59.5318V22.496ZM64.8918 25.552C64.8918 24.944 64.7638 24.4213 64.5078 23.984C64.2625 23.536 63.9318 23.2 63.5158 22.976C63.1105 22.7413 62.6731 22.624 62.2038 22.624C61.7451 22.624 61.3078 22.7413 60.8918 22.976C60.4865 23.2107 60.1558 23.552 59.8998 24C59.6545 24.448 59.5318 24.976 59.5318 25.584C59.5318 26.192 59.6545 26.7253 59.8998 27.184C60.1558 27.632 60.4865 27.9733 60.8918 28.208C61.3078 28.4427 61.7451 28.56 62.2038 28.56C62.6731 28.56 63.1105 28.4427 63.5158 28.208C63.9318 27.9627 64.2625 27.6107 64.5078 27.152C64.7638 26.6933 64.8918 26.16 64.8918 25.552ZM76.6316 25.376C76.6316 25.7067 76.6102 26.0053 76.5676 26.272H69.8316C69.8849 26.976 70.1462 27.5413 70.6156 27.968C71.0849 28.3947 71.6609 28.608 72.3436 28.608C73.3249 28.608 74.0182 28.1973 74.4236 27.376H76.3916C76.1249 28.1867 75.6396 28.8533 74.9356 29.376C74.2422 29.888 73.3782 30.144 72.3436 30.144C71.5009 30.144 70.7436 29.9573 70.0716 29.584C69.4102 29.2 68.8876 28.6667 68.5036 27.984C68.1302 27.2907 67.9436 26.4907 67.9436 25.584C67.9436 24.6773 68.1249 23.8827 68.4876 23.2C68.8609 22.5067 69.3782 21.9733 70.0396 21.6C70.7116 21.2267 71.4796 21.04 72.3436 21.04C73.1756 21.04 73.9169 21.2213 74.5676 21.584C75.2182 21.9467 75.7249 22.4587 76.0876 23.12C76.4502 23.7707 76.6316 24.5227 76.6316 25.376ZM74.7276 24.8C74.7169 24.128 74.4769 23.5893 74.0076 23.184C73.5382 22.7787 72.9569 22.576 72.2636 22.576C71.6342 22.576 71.0956 22.7787 70.6476 23.184C70.1996 23.5787 69.9329 24.1173 69.8476 24.8H74.7276ZM80.2506 18.16V30H78.4266V18.16H80.2506Z" fill="white"/>
</svg>
